<svg width="280" height="74" viewBox="0 0 280 74" fill="none" xmlns="http://www.w3.org/2000/svg">
<path d="M279.136 34.7569C278.234 36.7219 276.678 38.3215 274.728 39.2891C272.778 40.2566 270.552 40.5337 268.421 40.0741C267.695 40.0371 266.997 39.785 266.417 39.3504C264.001 36.802 262.061 38.2493 260.058 39.8538C259 40.6813 257.872 41.4181 256.688 42.0562C255.49 42.4471 254.49 43.2804 253.898 44.3823C253.306 45.4842 253.166 46.7698 253.508 47.9712C253.752 49.8915 253.274 51.8335 252.167 53.4285C251.059 55.0235 249.397 56.1604 247.498 56.6234C245.641 57.234 243.633 57.2329 241.776 56.6204C239.919 56.0079 238.312 54.8168 237.196 53.2254C236.07 51.651 235.516 49.7453 235.626 47.8195C235.736 45.8938 236.502 44.0617 237.8 42.6226C239.117 41.122 240.906 40.1041 242.879 39.7331C244.852 39.362 246.894 39.6595 248.675 40.5775C249.39 41.0842 250.267 41.3185 251.143 41.2376C252.019 41.1567 252.836 40.766 253.444 40.137C254.653 39.2246 256.02 38.4695 257.292 37.62C261.839 34.4738 261.807 34.4738 261.871 29.1881C261.884 28.7936 261.783 28.4035 261.58 28.0636C261.378 27.7237 261.081 27.448 260.726 27.2688L257.546 25.1609C254.557 22.927 252.236 20.5673 247.721 23.8394C243.206 27.1115 236.592 25.035 232.935 21.0393C231.128 19.1508 229.978 16.7406 229.652 14.1599C229.326 11.5792 229.841 8.96291 231.123 6.69237C232.46 4.31457 234.516 2.41081 237.002 1.24838C239.489 0.0859433 242.281 -0.276794 244.986 0.211092C247.714 0.699741 250.212 2.03774 252.116 4.02996C254.021 6.02217 255.233 8.5644 255.575 11.2859C255.843 12.5121 255.755 13.7884 255.32 14.967C255.013 15.3844 254.814 15.8702 254.742 16.3816C254.669 16.893 254.725 17.4142 254.904 17.8993C255.083 18.3843 255.38 18.8183 255.769 19.1629C256.157 19.5075 256.626 19.7521 257.133 19.8752C258.272 20.4772 259.339 21.2055 260.312 22.0461C261.215 23.1752 262.494 23.9502 263.921 24.2326C265.348 24.5149 266.83 24.2864 268.103 23.5877C269.798 22.9552 271.659 22.9028 273.388 23.4389C275.117 23.9749 276.614 25.0685 277.642 26.5452C278.119 27.1745 278.278 28.0239 279.136 28.37V34.7569ZM242.888 21.0393C244.038 21.0576 245.179 20.8428 246.242 20.408C247.305 19.9733 248.267 19.3278 249.068 18.5113C249.87 17.6949 250.494 16.7247 250.902 15.6606C251.31 14.5966 251.493 13.4611 251.441 12.3242C251.422 11.1863 251.169 10.0641 250.698 9.02623C250.226 7.98838 249.545 7.05666 248.697 6.28805C247.848 5.51944 246.851 4.93009 245.764 4.55601C244.678 4.18193 243.526 4.031 242.379 4.11244C241.228 4.08446 240.083 4.29296 239.017 4.7248C237.952 5.15663 236.988 5.80241 236.187 6.62136C235.386 7.44032 234.766 8.41465 234.365 9.48286C233.964 10.5511 233.791 11.6899 233.857 12.8276C233.867 13.9654 234.113 15.0891 234.58 16.129C235.047 17.1689 235.725 18.1028 236.571 18.8728C237.418 19.6427 238.416 20.2324 239.502 20.605C240.589 20.9777 241.741 21.1255 242.888 21.0393ZM244.637 42.0877C242.95 42.0877 241.332 42.7506 240.14 43.9307C238.947 45.1108 238.277 46.7113 238.277 48.3802C238.277 49.2281 238.449 50.0675 238.784 50.8478C239.12 51.6281 239.611 52.3333 240.229 52.9211C240.847 53.5088 241.578 53.9669 242.379 54.2679C243.18 54.5689 244.035 54.7066 244.891 54.6727C246.578 54.6727 248.195 54.0097 249.388 52.8297C250.58 51.6496 251.25 50.0491 251.25 48.3802C251.25 46.7113 250.58 45.1108 249.388 43.9307C248.195 42.7506 246.578 42.0877 244.891 42.0877H244.637ZM276.434 31.6421C276.322 30.1194 275.632 28.6948 274.503 27.655C273.373 26.6151 271.887 26.037 270.344 26.037C268.801 26.037 267.316 26.6151 266.186 27.655C265.056 28.6948 264.367 30.1194 264.255 31.6421C264.367 33.1649 265.056 34.5894 266.186 35.6293C267.316 36.6692 268.801 37.2473 270.344 37.2473C271.887 37.2473 273.373 36.6692 274.503 35.6293C275.632 34.5894 276.322 33.1649 276.434 31.6421Z" fill="white"/>
<path d="M16.2391 73.2042C12.0123 71.993 8.14841 69.779 4.98295 66.7544C1.77393 63.2018 0 58.6039 0 53.8391C0 49.0742 1.77393 44.4764 4.98295 40.9237C8.08898 37.4893 12.3437 35.2799 16.9647 34.7018C21.5857 34.1238 26.2622 35.2159 30.1343 37.7775C31.008 38.4119 31.8269 39.117 32.5827 39.8854C32.7376 40.0184 32.8619 40.1827 32.947 40.3672C33.0322 40.5518 33.0762 40.7523 33.0762 40.9552C33.0762 41.1581 33.0322 41.3586 32.947 41.5431C32.8619 41.7277 32.7376 41.892 32.5827 42.0249C32.458 42.1867 32.3021 42.3225 32.124 42.4245C31.946 42.5264 31.7493 42.5924 31.5453 42.6187C31.3414 42.6451 31.1342 42.6312 30.9356 42.5778C30.7371 42.5245 30.5512 42.4328 30.3887 42.3081L29.0533 41.3956C26.4823 39.309 23.3007 38.0966 19.9793 37.938C16.658 37.7793 13.3732 38.6828 10.611 40.5147C7.83414 42.518 5.75709 45.3276 4.66865 48.5529C3.58021 51.7782 3.53447 55.259 4.5378 58.5113C5.26 61.1093 6.67013 63.4694 8.62252 65.3478C10.5749 67.2262 12.9987 68.5547 15.6436 69.1961C18.2885 69.8376 21.0585 69.7686 23.6674 68.9965C26.2763 68.2243 28.6296 66.7769 30.4841 64.8038C31.5016 63.8284 32.4873 61.4687 34.2998 63.2306C36.1122 64.9925 33.8864 66.0308 32.8689 67.1949C29.8187 70.2282 25.9204 72.2883 21.6764 73.1099L16.2391 73.2042Z" fill="white"/>
<path d="M223.619 50.0163C223.619 45.8633 223.619 42.0249 223.619 38.2179C223.619 36.1414 224.033 34.2851 226.545 34.3166C229.057 34.348 229.438 36.2987 229.438 38.3123V67.1005C229.438 68.9253 229.12 70.6243 226.958 70.9704C224.796 71.3165 223.778 69.9321 223.492 68.0444C221.093 70.2084 217.928 71.3493 214.684 71.2197C211.44 71.0902 208.378 69.7005 206.163 67.3522C204.042 65.014 202.869 61.9832 202.869 58.8416C202.869 55.7 204.042 52.6691 206.163 50.331C211.059 45.5172 217.705 45.297 223.619 50.0163ZM223.619 58.9202C223.686 57.915 223.543 56.907 223.2 55.9586C222.857 55.0102 222.321 54.1415 221.625 53.4063C220.929 52.6711 220.088 52.085 219.154 51.6844C218.22 51.2837 217.213 51.077 216.195 51.077C215.177 51.077 214.169 51.2837 213.235 51.6844C212.301 52.085 211.46 52.6711 210.764 53.4063C210.068 54.1415 209.532 55.0102 209.189 55.9586C208.846 56.907 208.704 57.915 208.77 58.9202C208.704 59.9254 208.846 60.9334 209.189 61.8819C209.532 62.8303 210.068 63.699 210.764 64.4342C211.46 65.1694 212.301 65.7555 213.235 66.1561C214.169 66.5568 215.177 66.7635 216.195 66.7635C217.213 66.7635 218.22 66.5568 219.154 66.1561C220.088 65.7555 220.929 65.1694 221.625 64.4342C222.321 63.699 222.857 62.8303 223.2 61.8819C223.543 60.9334 223.686 59.9254 223.619 58.9202Z" fill="white"/>
<path d="M122.409 34.5995C126.409 34.3909 130.367 35.4971 133.665 37.7457C135.287 38.9099 137.322 40.1369 135.732 42.4022C134.142 44.6675 132.298 43.409 130.581 42.2134C127.678 40.1134 124.062 39.2148 120.5 39.7082C116.939 40.2015 113.711 42.0481 111.503 44.8563C109.513 47.5855 108.628 50.953 109.022 54.2955C109.417 57.638 111.062 60.7133 113.633 62.9157C116.236 64.9553 119.476 66.0334 122.796 65.9645C126.115 65.8956 129.307 64.684 131.821 62.5382C132.226 62.1846 132.608 61.8063 132.966 61.4055C134.333 59.8953 135.891 59.4234 137.417 60.9336C138.943 62.4438 138.18 63.7967 136.908 65.1181C133.871 68.2337 129.909 70.3101 125.597 71.0456C121.286 71.7811 116.85 71.1375 112.934 69.2082C109.307 67.3875 106.399 64.4207 104.671 60.7785C102.943 57.1363 102.494 53.0274 103.394 49.1037C104.373 44.8796 106.804 41.1233 110.273 38.4775C113.742 35.8316 118.032 34.4608 122.409 34.5995Z" fill="white"/>
<path d="M161.202 45.8946C163.689 45.981 166.097 46.7879 168.126 48.2154C170.155 49.6428 171.716 51.628 172.615 53.9249C173.514 56.2218 173.713 58.7293 173.186 61.1367C172.659 63.5441 171.429 65.7455 169.65 67.468C167.87 69.1905 165.619 70.3585 163.175 70.827C160.731 71.2956 158.201 71.0442 155.901 70.104C153.6 69.1637 151.628 67.576 150.23 65.5377C148.833 63.4993 148.07 61.0999 148.038 58.6369C148.037 56.9394 148.38 55.259 149.045 53.6943C149.709 52.1296 150.684 50.7121 151.91 49.5251C153.136 48.3381 154.59 47.4055 156.186 46.782C157.781 46.1586 159.487 45.8568 161.202 45.8946ZM168.706 58.4796C168.793 57.4532 168.658 56.4202 168.309 55.4497C167.96 54.4792 167.406 53.5935 166.684 52.8519C165.961 52.1103 165.087 51.5298 164.12 51.1493C163.152 50.7688 162.114 50.597 161.074 50.6454C160.08 50.6346 159.093 50.8273 158.178 51.2115C157.262 51.5957 156.436 52.1631 155.752 52.8781C155.069 53.593 154.542 54.4401 154.204 55.3661C153.867 56.2922 153.727 57.2772 153.793 58.2593C153.713 59.2667 153.842 60.2796 154.173 61.2355C154.504 62.1915 155.03 63.0701 155.718 63.8172C156.405 64.5642 157.24 65.1639 158.171 65.5792C159.102 65.9945 160.11 66.2165 161.131 66.2316C162.152 66.2466 163.165 66.0545 164.108 65.6669C165.051 65.2793 165.904 64.7045 166.614 63.9781C167.324 63.2516 167.876 62.3889 168.236 61.4432C168.595 60.4975 168.755 59.4889 168.706 58.4796Z" fill="white"/>
<path d="M200.694 55.2392C200.884 57.8039 200.756 60.3821 200.312 62.916C199.466 65.7327 197.591 68.1369 195.052 69.6607C192.513 71.1844 189.491 71.7186 186.576 71.1592C183.854 70.6953 181.383 69.3013 179.594 67.2201C177.804 65.1388 176.809 62.5023 176.782 59.7698C176.782 56.2145 176.782 52.6592 176.782 49.104C176.782 47.2477 177.45 45.9577 179.517 45.9577C181.584 45.9577 182.315 47.2477 182.283 49.104C182.283 52.5649 182.283 56.0257 182.283 59.4866C182.273 60.313 182.427 61.1332 182.737 61.9006C183.047 62.668 183.507 63.3675 184.09 63.9591C184.673 64.5507 185.368 65.0229 186.136 65.3487C186.903 65.6744 187.728 65.8474 188.563 65.8578C189.398 65.8681 190.227 65.7156 191.003 65.4089C191.778 65.1022 192.485 64.6474 193.083 64.0704C193.681 63.4933 194.158 62.8055 194.488 62.046C194.817 61.2865 194.992 60.4703 195.002 59.6439C195.002 56.2774 195.002 52.8795 195.002 49.513C195.002 47.5623 195.606 45.8633 198.182 45.9577C200.757 46.0521 200.853 47.6882 200.853 49.5445L200.694 55.2392Z" fill="white"/>
<path d="M89.7859 59.581C87.1785 59.581 84.5394 59.581 81.9002 59.581C80.1514 59.581 79.738 60.0844 80.215 61.8149C80.6451 63.3198 81.4577 64.6906 82.5753 65.7966C83.6928 66.9026 85.078 67.7069 86.5989 68.1328C88.1198 68.5587 89.7255 68.592 91.2631 68.2296C92.8006 67.8671 94.2187 67.121 95.3821 66.0623C96.3043 65.2757 97.2582 63.0734 98.7526 64.8038C100.247 66.5343 98.1167 67.3208 97.131 68.2018C94.9751 70.1272 92.2088 71.2494 89.3075 71.3758C86.4061 71.5021 83.5509 70.6245 81.2325 68.8939C78.7454 66.868 77.0757 64.0261 76.5272 60.8851C75.9787 57.7441 76.5877 54.5126 78.2436 51.7783C79.6382 49.3962 81.8409 47.5803 84.4604 46.6529C87.08 45.7256 89.947 45.7468 92.5522 46.7129C94.7664 47.6228 96.6756 49.1335 98.0596 51.0708C99.4436 53.008 100.246 55.2928 100.374 57.6618C100.374 59.2664 99.4839 59.6754 98.1803 59.7069C95.3821 59.7069 92.584 59.7069 89.7541 59.7069L89.7859 59.581ZM88.355 56.8123C90.549 56.8123 92.7112 56.8123 94.7144 56.8123C96.7176 56.8123 96.9084 55.9943 96.3043 54.3897C95.7053 52.6992 94.5854 51.2372 93.1022 50.2099C91.619 49.1826 89.8474 48.6417 88.0371 48.6635C86.2068 48.7727 84.4543 49.4345 83.0159 50.5596C81.5775 51.6847 80.5223 53.2191 79.9924 54.956C79.5791 56.3719 80.1832 56.6865 81.4233 56.655L88.355 56.8123Z" fill="white"/>
<path d="M58.529 67.1632C52.1696 71.8826 46.6051 72.4489 41.454 68.9566C38.9851 67.3108 37.1779 64.8603 36.347 62.0317C35.5162 59.2032 35.7143 56.1759 36.907 53.477C38.1804 50.7872 40.3305 48.599 43.012 47.2637C45.6935 45.9285 48.7508 45.5239 51.6926 46.1148C54.5472 46.6531 57.1294 48.1423 59.0096 50.3347C60.8898 52.5271 61.9545 55.2905 62.0267 58.165C62.0267 61.4685 62.0267 64.7406 62.0267 68.0442C62.0267 69.3341 62.3128 71.0331 60.3096 71.0017C58.3064 70.9702 58.688 69.2398 58.6244 67.8554C58.6042 67.6233 58.5724 67.3922 58.529 67.1632ZM58.529 58.6998C58.5725 56.1334 57.5983 53.6522 55.8152 51.7879C54.0322 49.9236 51.5821 48.8246 48.9899 48.7262C46.4538 48.8222 44.0514 49.8763 42.2769 51.6716C40.5023 53.4669 39.4906 55.8669 39.4499 58.3778C39.4092 60.8887 40.3425 63.3195 42.0579 65.1703C43.7733 67.021 46.1403 68.1508 48.6719 68.3273C49.9675 68.3481 51.2545 68.1152 52.4587 67.6418C53.663 67.1685 54.7607 66.4641 55.6887 65.5693C56.6166 64.6744 57.3566 63.6068 57.8659 62.4278C58.3752 61.2489 58.6438 59.9819 58.6562 58.6998H58.529Z" fill="white"/>
<path d="M140.915 52.6276V37.9976C140.915 36.1413 141.201 34.3165 143.459 34.3794C145.716 34.4423 145.78 36.2357 145.78 37.9661C145.78 47.8139 145.78 57.6616 145.78 67.5094C145.78 69.2713 145.78 71.1591 143.236 71.0647C140.693 70.9703 140.947 69.2398 140.947 67.5723L140.915 52.6276Z" fill="white"/>
<path d="M68.1638 49.8275C69.1475 48.696 70.348 47.7687 71.6961 47.099C73.0441 46.4294 74.513 46.0308 76.0176 45.9262C77.1941 45.9262 78.6568 45.6116 78.7522 47.3105C78.8475 49.0095 77.4485 48.8522 76.3992 48.9466C74.1204 49.0801 71.9656 50.0178 70.326 51.5894C69.5415 52.3257 68.9191 53.2144 68.4978 54.1997C68.0765 55.185 67.8654 56.2458 67.8776 57.3156C67.8776 61.0596 67.8776 64.7722 67.8776 68.5163C67.8776 69.7118 67.8776 71.0018 66.2242 71.0962C64.5707 71.1906 64.3481 69.7433 64.3481 68.4848C64.3481 62.1923 64.3481 56.0571 64.3481 49.859C64.3481 48.4432 63.8394 46.3667 65.9698 46.1464C68.1002 45.9262 67.7186 48.16 68.1638 49.8275Z" fill="white"/>
</svg>
